<?xml version="1.0" encoding="iso-8859-1"?>
<!-- Uploaded to: SVG Repo, www.svgrepo.com, Generator: SVG Repo Mixer Tools -->
<!DOCTYPE svg PUBLIC "-//W3C//DTD SVG 1.1//EN" "http://www.w3.org/Graphics/SVG/1.1/DTD/svg11.dtd">
<svg fill="#000000" height="800px" width="800px" version="1.1" id="Capa_1" xmlns="http://www.w3.org/2000/svg" xmlns:xlink="http://www.w3.org/1999/xlink" 
	 viewBox="0 0 470 470" xml:space="preserve">
<path d="M469.84,201.774c-0.409-1.947-1.574-3.651-3.239-4.739l-113.067-73.85V24.723c0-4.142-3.358-7.5-7.5-7.5h-30
	c-4.142,0-7.5,3.358-7.5,7.5v69.07l-69.433-45.35c-2.491-1.628-5.711-1.628-8.202,0L3.399,197.035
	c-1.666,1.088-2.831,2.792-3.239,4.739c-0.408,1.947-0.027,3.976,1.061,5.641l14.771,22.615c2.265,3.469,6.914,4.443,10.38,2.178
	l14.31-9.347c0.133,9.759,4.615,18.484,11.598,24.319c-7.089,5.923-11.609,14.823-11.609,24.762s4.52,18.839,11.609,24.762
	c-7.089,5.923-11.609,14.823-11.609,24.762c0,9.939,4.52,18.839,11.609,24.762c-7.089,5.923-11.609,14.823-11.609,24.762
	s4.52,18.839,11.609,24.762c-7.089,5.923-11.609,14.823-11.609,24.762c0,17.79,14.473,32.262,32.262,32.262h324.134
	c17.79,0,32.262-14.473,32.262-32.262c0-9.938-4.52-18.839-11.609-24.762c7.089-5.923,11.609-14.823,11.609-24.762
	s-4.52-18.839-11.609-24.762c7.089-5.923,11.609-14.823,11.609-24.762c0-9.938-4.52-18.839-11.609-24.762
	c7.089-5.923,11.609-14.823,11.609-24.762s-4.52-18.839-11.609-24.762c6.983-5.834,11.466-14.56,11.598-24.319l14.31,9.347
	c1.265,0.827,2.688,1.222,4.094,1.222c2.448,0,4.848-1.197,6.286-3.4l14.771-22.615C469.867,205.75,470.249,203.721,469.84,201.774z
	 M323.534,32.223h15v81.165l-15-9.797V32.223z M227.5,100.842v89.314h-66.034v-46.185L227.5,100.842z M308.534,143.972v46.185H242.5
	v-89.314L308.534,143.972z M379.245,190.156h-55.711v-36.387L379.245,190.156z M343.823,353.729h26.009
	c-3.178,4.996-5.027,10.915-5.027,17.262s1.85,12.266,5.027,17.262h-68.509v-34.524h12.5c4.142,0,7.5-3.358,7.5-7.5
	s-3.358-7.5-7.5-7.5h-12.5v-34.524h68.509c-3.178,4.996-5.027,10.915-5.027,17.262c0,6.347,1.85,12.266,5.027,17.262h-26.009
	c-4.142,0-7.5,3.358-7.5,7.5S339.681,353.729,343.823,353.729z M126.177,388.253h-26.009c3.178-4.996,5.027-10.915,5.027-17.262
	s-1.85-12.266-5.027-17.262h68.509v34.524h-12.5c-4.142,0-7.5,3.358-7.5,7.5s3.358,7.5,7.5,7.5h12.5v34.524h-68.509
	c3.178-4.996,5.027-10.915,5.027-17.262c0-6.347-1.85-12.266-5.027-17.262h26.009c4.142,0,7.5-3.358,7.5-7.5
	S130.319,388.253,126.177,388.253z M168.677,289.205h-68.509c3.178-4.996,5.027-10.915,5.027-17.262s-1.85-12.266-5.027-17.262
	h68.509V289.205z M168.677,304.205v34.524h-68.509c3.178-4.996,5.027-10.915,5.027-17.262c0-6.347-1.85-12.266-5.027-17.262H168.677
	z M183.677,296.714c0-0.02,0-42.034,0-42.034h102.646v42.015c0,0.02,0,49.524,0,49.524c0,0.02,0,49.524,0,49.524
	c0,0.02,0,42.034,0,42.034H183.677V296.714z M301.323,403.253h68.509c-3.178,4.996-5.027,10.915-5.027,17.262
	c0,6.347,1.85,12.266,5.027,17.262h-68.509V403.253z M301.323,289.205V254.68h68.509c-3.178,4.996-5.027,10.915-5.027,17.262
	s1.85,12.266,5.027,17.262H301.323z M100.168,239.68c3.178-4.996,5.027-10.915,5.027-17.262c0-6.347-1.85-12.266-5.027-17.262
	h269.664c-3.178,4.996-5.027,10.915-5.027,17.262c0,6.347,1.85,12.266,5.027,17.262H100.168z M146.466,190.156H90.755l55.711-36.387
	V190.156z M55.671,222.418c0-9.518,7.744-17.262,17.262-17.262s17.262,7.744,17.262,17.262c0,9.519-7.744,17.262-17.262,17.262
	S55.671,231.937,55.671,222.418z M55.671,271.942c0-9.519,7.744-17.262,17.262-17.262s17.262,7.744,17.262,17.262
	s-7.744,17.262-17.262,17.262S55.671,281.461,55.671,271.942z M55.671,321.466c0-9.518,7.744-17.262,17.262-17.262
	s17.262,7.744,17.262,17.262c0,9.519-7.744,17.262-17.262,17.262S55.671,330.985,55.671,321.466z M55.671,370.991
	c0-9.519,7.744-17.262,17.262-17.262s17.262,7.744,17.262,17.262s-7.744,17.262-17.262,17.262S55.671,380.509,55.671,370.991z
	 M55.671,420.515c0-9.518,7.744-17.262,17.262-17.262s17.262,7.744,17.262,17.262c0,9.519-7.744,17.262-17.262,17.262
	S55.671,430.033,55.671,420.515z M414.329,420.515c0,9.519-7.744,17.262-17.262,17.262s-17.262-7.744-17.262-17.262
	c0-9.518,7.744-17.262,17.262-17.262S414.329,410.997,414.329,420.515z M414.329,370.991c0,9.519-7.744,17.262-17.262,17.262
	s-17.262-7.744-17.262-17.262s7.744-17.262,17.262-17.262S414.329,361.472,414.329,370.991z M414.329,321.466
	c0,9.519-7.744,17.262-17.262,17.262s-17.262-7.744-17.262-17.262c0-9.518,7.744-17.262,17.262-17.262
	S414.329,311.948,414.329,321.466z M414.329,271.942c0,9.519-7.744,17.262-17.262,17.262s-17.262-7.744-17.262-17.262
	s7.744-17.262,17.262-17.262S414.329,262.424,414.329,271.942z M379.805,222.418c0-9.518,7.744-17.262,17.262-17.262
	s17.262,7.744,17.262,17.262c0,9.519-7.744,17.262-17.262,17.262S379.805,231.937,379.805,222.418z M445.551,215.548l-125.317-81.85
	c-0.022-0.015-81.04-52.931-81.04-52.931c-0.002-0.001-0.093-0.061-0.093-0.061c-0.025-0.016-0.052-0.026-0.076-0.042
	c-0.254-0.162-0.518-0.307-0.791-0.438c-0.055-0.026-0.108-0.054-0.163-0.079c-0.298-0.134-0.605-0.251-0.922-0.346
	c-0.039-0.012-0.078-0.019-0.117-0.03c-0.272-0.076-0.55-0.136-0.834-0.182c-0.077-0.013-0.154-0.025-0.232-0.036
	c-0.317-0.041-0.637-0.069-0.965-0.069s-0.648,0.028-0.965,0.069c-0.078,0.01-0.154,0.023-0.232,0.036
	c-0.284,0.046-0.562,0.105-0.834,0.182c-0.039,0.011-0.078,0.019-0.117,0.03c-0.317,0.095-0.624,0.212-0.922,0.346
	c-0.055,0.025-0.109,0.053-0.163,0.079c-0.273,0.131-0.538,0.276-0.791,0.438c-0.025,0.016-0.052,0.026-0.076,0.042l-0.091,0.059
	c-0.002,0.001-81.02,52.918-81.02,52.918c-0.022,0.015-125.339,81.865-125.339,81.865l-6.568-10.056L235,63.681l217.12,141.811
	L445.551,215.548z"/>
</svg>